<svg xmlns="http://www.w3.org/2000/svg" viewBox="0 0 326.9 155" enable-background="new 0 0 326.9 155"><style type="text/css">.st0{fill:#182987;} .st1{fill:#56B1E8;} .st2{fill:#0E79AF;} .st3{fill:#83CFEF;} .st4{fill:#00A9CC;} .st5{fill:#FFFFFF;} .st6{fill:#006934;} .st7{fill:#044422;} .st8{fill:#8DC21F;} .st9{fill:none;stroke:#EEEEEF;stroke-width:2.7382;stroke-miterlimit:10;} .st10{fill:#1EAA39;} .st11{fill:#00913A;} .st12{fill:#00CCFF;} .st13{fill:#990000;} .st14{fill:#40210F;} .st15{fill:#DBDCDC;} .st16{fill:#B4B4B5;} .st17{fill:#E50012;} .st18{fill:#542B16;} .st19{fill:#EEEEEF;} .st20{fill:#DADF00;} .st21{fill:#FAED00;} .st22{fill:#F7B52C;} .st23{fill:#FFF000;} .st24{fill:#E3007F;} .st25{fill:#FF78AC;} .st26{fill:#604C3F;} .st27{fill:#009844;} .st28{fill:#C8C9CA;}</style><path id="mo2_1_" class="st0" d="M51.2 82.2l-21.8 41.2h92.5l-45.9-52.8-9.6 8.1-6.2-3.5z"/><path id="mo2" class="st0" d="M234.9 122.9l-54-74.7 12.6 6.1 9.1-.3 9.4 8.5 51.5 60.4z"/><g id="mo"><path class="st1" d="M19.6 143.9l30.4-44.3 36-33.6 4.2-11.1 11.4-14.2 12.9-16.9 6.5-4.1 7.6-13 6.6-4.1 19.1 15.7 2 4.5 9.4 11.6 5.5 1.2 79.8 106z"/><path class="st2" d="M135.2 2.6l19.1 15.7 2 4.5 9.4 11.6 5.5 1.2 83.6 111h-112.2l-9.4-75.3 12.4-18.3 1.5-21.6z"/></g><g id="s2"><path class="st3" d="M90.2 54.6l11.4-14.2 12.9-16.9 6.5-4.1 7.6-12.9 6.6-4.2 19.1 15.7 2 4.5 9.4 11.6 5.5 1.2 8.5 11.3-17.3-4.2-29.2 28.9-8.1-25.9-3.3 1.7-6 10.5 5.4-15.9-14.7 13.5-2.1-1-7.8 2.7z"/><path class="st4" d="M133.2 71l12.4-18.2 1.5-21.7-11.9-28.8 19.2 15.7 1.9 4.6 9.4 11.5 5.5 1.2 41.1 54.6-13.9-8.1h-12l-8.3-6.2-15.3-15.4.8 16.3-9.3-9.8-8-2.6z"/></g><g id="s"><path class="st5" d="M151.4 23.3l.1 6.8 3.1 7.2 4 6.4-5.5-6.4-1.9-1 1.9.1-4.1-4.6-1.5-4zM150.9 21l-8.5-3.4-3.9-11.2 12.4 14.7zM156.3 26.6c.1.6 6.6 6.4 6.6 6.4l2.2 1.1-5.1-1.1-3.7-6.4zM135.6 17.9l.7 7.5-1.4 2.3-1.8 9.9-.1 6.1-1.1-13.3 2.7-6.9zM141.5 40.9l2.3 2.2-2.1 6-2.3-2-.9 5.4-5.3 3.6 4.5-6.9.6-9.6zM140.7 24.4l1.2 8.9-2.7 2.2s-.8 1.8-.7 1.5l.6-5.8 1.6-6.8zM135 13l-15.4 15.9.1 3.8-8.2 7.5 6.5-4.5 6.6-7.3-1.3-1.8zM153.1 44l-.5-3.5-3.5-4.1 1.9 4.3 1.3.8z"/></g><g id="m_3_"><path class="st6" d="M229.3 75.7c0 3.2-1.8 4.6-4 4.6s-4-1.4-4-4.6l4-10s4 6.8 4 10z"/><path class="st7" d="M225.3 65.7s4 6.8 4 10-1.8 4.6-4 4.6v-14.6z"/><path class="st6" d="M236.6 73.9c0 3.2-1.8 4.6-4 4.6s-4-1.4-4-4.6l4-10s4 6.8 4 10z"/><path class="st7" d="M232.6 64s4 6.8 4 10-1.8 4.6-4 4.6v-14.6z"/><path class="st6" d="M243.9 72.2c0 3.2-1.8 4.6-4 4.6s-4-1.4-4-4.6l4-10s4 6.8 4 10z"/><path class="st7" d="M239.9 62.2s4 6.8 4 10-1.8 4.6-4 4.6v-14.6z"/><path class="st6" d="M251.2 71.7c0 3.2-1.8 4.6-4 4.6s-4-1.4-4-4.6c0-3.2 4-10 4-10s4 6.8 4 10z"/><path class="st7" d="M247.1 61.8s4 6.8 4 10-1.8 4.6-4 4.6v-14.6z"/><path class="st6" d="M258.2 72.2c0 3.2-1.8 4.6-4 4.6s-4-1.4-4-4.6l4-10s4 6.8 4 10z"/><path class="st7" d="M254.2 62.2s4 6.8 4 10-1.8 4.6-4 4.6v-14.6z"/><path class="st6" d="M265.3 73.9c0 3.2-1.8 4.6-4 4.6s-4-1.4-4-4.6l4-10s4 6.8 4 10z"/><path class="st7" d="M261.2 64s4 6.8 4 10-1.8 4.6-4 4.6v-14.6z"/><path class="st6" d="M272.3 77.4c0 3.2-1.8 4.6-4 4.6s-4-1.4-4-4.6l4-10s4 6.8 4 10z"/><path class="st7" d="M268.3 67.5s4 6.8 4 10-1.8 4.6-4 4.6v-14.6z"/><path class="st6" d="M279.5 81.3c0 3.2-1.8 4.6-4 4.6s-4-1.4-4-4.6c0-3.2 4-10 4-10s4 6.8 4 10z"/><path class="st7" d="M275.4 71.3s4 6.8 4 10-1.8 4.6-4 4.6v-14.6z"/></g><path id="o_5_" class="st8" d="M296.4 149.4c2.5-6.3 3.8-13.1 3.8-20.2 0-30.5-24.7-55.2-55.2-55.2-18.9 0-35.6 9.5-45.5 24-7.4 10.1-25.2 19.2-46.9 22.6s-50 24.2-45.5 29.1l189.3-.3z"/><path id="r" class="st9" d="M247.7 75.2c-9.4 1.6-19.2 3.4-29.1 13.9-10.2 10.8-11.1 21.3-27.9 30.5"/><path class="st10" d="M97.4 133.6c0-23.8 19.3-43.1 43.1-43.1s43.1 19.3 43.1 43.1h-86.2z" id="o_4_"/><path id="o_3_" class="st10" d="M18.1 145.8c0-18.8 15.2-34 34-34s34 15.2 34 34h-68z"/><path class="st11" d="M200.9 145.8c0-29.9 24.2-54.2 54.2-54.2s54.2 24.2 54.2 54.2h-108.4z" id="o_2_"/><path class="st11" d="M166.7 131.8c0-12.8 10.4-23.2 23.2-23.2 12.8 0 23.2 10.4 23.2 23.2h-46.4z" id="o_1_"/><g id="u"><path class="st12" d="M79.2 147.4c0-11.6 9.5-21.1 21.1-21.1h152.1c11.6 0 21.1 9.5 21.1 21.1h-194.3z"/><path class="st5" d="M179.3 128.5v.4c0 .5.4.9.9.9.4 0 .7-.2.8-.5.1.3.4.5.8.5s.7-.2.8-.5c.1.3.4.5.8.5s.7-.2.8-.5c.1.3.4.5.8.5.5 0 .9-.4.9-.9v-.4h-6.6zM193.7 132.1v.4c0 .5.4.9.9.9.4 0 .7-.2.8-.5.1.3.4.5.8.5.5 0 .9-.4.9-.9v-.4h-3.4zM202.2 128.5v.4c0 .5.4.9.9.9.4 0 .7-.2.8-.5.1.3.4.5.8.5s.7-.2.8-.5c.1.3.4.5.8.5s.7-.2.8-.5c.1.3.4.5.8.5.5 0 .9-.4.9-.9v-.4h-6.6z"/></g><g id="d3"><path class="st13" d="M131.248 99.39l11.319 8.239-2.648 3.638-11.319-8.239z"/><path class="st14" d="M131.78 100.997l.97.706-.942 1.294-.97-.706zM133.007 101.823l.97.706-.942 1.294-.97-.706zM134.175 102.73l.97.706-.942 1.294-.97-.706zM135.262 103.577l.97.706-.942 1.294-.97-.706zM136.489 104.403l.97.706-.942 1.294-.97-.706zM137.657 105.31l.97.706-.942 1.294-.97-.706zM138.885 106.136l.97.706-.942 1.294-.97-.706zM139.974 106.982l.889.647-.942 1.294-.889-.647zM127.7 101.3l.9 1.7 2.7-3.6-1-1.7z"/><path class="st15" d="M131.248 99.405l11.319 8.239-.235.323-11.319-8.239z"/><path class="st16" d="M130 98l1 1.7.3-.3-1-1.7z"/><path class="st5" d="M141.6 106l-11.3-8.3 1 1.7 11.3 8.2z"/></g><path id="o" class="st8" d="M291.3 146.6c-4.9-11.2-16.1-19.1-29.2-19.1-7.2 0-13.9 2.4-19.2 6.5-14.3 7.7-33 10.8-52.4 7.3-16.6-2.9-31-10.1-41.6-19.7-12-17.3-32-28.7-54.7-28.7-32.4 0-59.3 23.1-65.2 53.8l262.3-.1z"/><g id="d"><g id="d2"><path class="st13" d="M117.823 93.168l12.898 5.445-1.75 4.146-12.898-5.445z"/><path class="st14" d="M118.651 94.633l1.106.467-.622 1.474-1.106-.467zM120.071 95.163l1.106.467-.622 1.474-1.106-.467zM121.36 95.745l1.106.467-.622 1.474-1.106-.467zM122.649 96.328l1.106.467-.622 1.474-1.106-.467zM124.07 96.857l1.106.467-.622 1.474-1.106-.467zM125.359 97.44l1.106.467-.622 1.474-1.106-.467zM126.648 98.023l1.106.467-.622 1.474-1.106-.467zM128.069 98.55l1.013.428-.622 1.474-1.013-.428zM114.7 95.9l1.3 1.4 1.8-4.1-1.4-1.4z"/><path class="st15" d="M117.727 93.171l12.898 5.445-.156.369-12.898-5.445z"/><path class="st16" d="M116.3 92.1l1.3 1.4.2-.3-1.4-1.4z"/><path class="st5" d="M129.4 97.2l-13-5.4 1.4 1.4 12.9 5.4z"/></g><g id="d1"><path class="st13" d="M103.04 89.448l13.679 2.979-.958 4.397-13.679-2.979z"/><path class="st14" d="M104.194 90.686l1.173.255-.34 1.563-1.173-.255zM105.596 90.982l1.173.255-.34 1.563-1.173-.255zM107.096 91.3l1.173.255-.34 1.563-1.173-.255zM108.498 91.596l1.173.255-.34 1.563-1.173-.255zM109.879 91.99l1.173.255-.34 1.563-1.173-.255zM111.282 92.286l1.173.255-.34 1.563-1.173-.255zM112.684 92.582l1.173.255-.34 1.563-1.173-.255zM114.086 92.881l1.173.255-.34 1.563-1.173-.255z"/><path class="st17" d="M100.5 92.7l1.6 1.1 1-4.4-1.6-1.1z"/><ellipse transform="matrix(.213 -.977 .977 .213 -10.505 170.986)" class="st5" cx="100.9" cy="92" rx=".1" ry=".1"/><ellipse transform="matrix(.213 -.977 .977 .213 -10.402 172.822)" class="st5" cx="102.1" cy="92.9" rx=".2" ry=".2"/><path class="st18" d="M100.9 91.1l1.6 1.1.5-2.3-1.6-1.2z"/><path class="st14" d="M103.3 92.4l-.8-.2.5-2.3.8.1z"/><path class="st16" d="M103.117 89.417l13.679 2.979-.085.391-13.679-2.979z"/><path class="st19" d="M101.4 88.7l1.6 1.2.1-.5-1.6-1.1z"/><path class="st5" d="M115.2 91.3l-13.7-3 1.6 1.1 13.7 3z"/></g></g><g id="t"><path class="st20" d="M315.9 152.6h-304.2c-3.3 0-6-2.7-6-6s2.7-6 6-6h304.2c3.3 0 6 2.7 6 6s-2.7 6-6 6z"/><path class="st14" d="M321.9 146.6c0 3.3-2.7 6-6 6h-304.2c-3.3 0-6-2.7-6-6h316.2z"/></g><g id="s_1_"><path class="st21" d="M71.4 18.6c-4.7 0-8.6 3.8-8.6 8.6 0 4.7 3.8 8.6 8.6 8.6 4.7 0 8.6-3.8 8.6-8.6s-3.9-8.6-8.6-8.6zm0 14.4c-3.2 0-5.8-2.6-5.8-5.8 0-3.2 2.6-5.8 5.8-5.8 3.2 0 5.8 2.6 5.8 5.8 0 3.2-2.6 5.8-5.8 5.8z"/><circle class="st22" cx="71.4" cy="27.1" r="6.1"/></g><path id="cl_2_" class="st5" d="M165.5 11.2c-.3 0-.5 0-.8.1v-.3c0-2.3-1.9-4.2-4.2-4.2-.6 0-1.2.1-1.8.4-.6-2.1-2.6-3.7-4.9-3.7-2.5 0-4.5 1.8-5 4.1-1.4.1-2.6.8-3.3 1.9-2.1.2-3.8 2-3.8 4.2h26.3c0-1.4-1.1-2.5-2.5-2.5z"/><path id="cl_1_" class="st5" d="M243.5 33.5c-.8-1.2-2.1-2-3.5-2.1-.5-2.5-2.7-4.4-5.4-4.4-2.5 0-4.6 1.7-5.3 4-.6-.3-1.2-.4-1.9-.4-2.5 0-4.6 2-4.6 4.6v.4c-.3-.1-.6-.1-.9-.1-1.5 0-2.7 1.2-2.7 2.7h28.400000000000002c0-2.6-1.8-4.5-4.1-4.7z"/><path id="cl" class="st5" d="M77 56.6c-.4-.7-1.1-1.1-1.9-1.1-.3-1.4-1.5-2.4-3-2.4-1.4 0-2.5.9-2.9 2.2-.3-.1-.7-.2-1.1-.2-1.4 0-2.5 1.1-2.5 2.5v.2c-.1 0-.3-.1-.5-.1-.8 0-1.5.7-1.5 1.5h15.6c0-1.4-1-2.4-2.2-2.6z"/><circle class="st23" cx="82.1" cy="95.2" r=".9"/><circle class="st23" cx="73.9" cy="98.3" r=".9"/><circle class="st23" cx="86.1" cy="99.5" r=".9"/><circle class="st23" cx="94.6" cy="93.4" r=".9"/><circle class="st23" cx="92.6" cy="96.1" r=".9"/><circle class="st23" cx="70.5" cy="104.2" r=".9"/><circle class="st23" cx="75.8" cy="110.3" r=".9"/><circle class="st23" cx="76.7" cy="93.9" r=".9"/><circle class="st23" cx="92" cy="109.4" r=".9"/><circle class="st23" cx="82.8" cy="106.7" r=".9"/><circle class="st23" cx="98.8" cy="100.5" r=".9"/><circle class="st23" cx="101.7" cy="94.8" r=".9"/><circle class="st23" cx="108.8" cy="101.4" r=".9"/><circle class="st23" cx="108.8" cy="95.2" r=".9"/><circle class="st23" cx="100.9" cy="111.3" r=".3"/><circle class="st23" cx="79.2" cy="101.6" r=".3"/><circle class="st23" cx="83.7" cy="111.6" r=".3"/><circle class="st23" cx="105" cy="104.8" r=".3"/><circle class="st23" cx="106.9" cy="109.8" r=".3"/><circle class="st23" cx="96.4" cy="105.4" r=".3"/><circle class="st23" cx="112.8" cy="99.9" r=".3"/><circle class="st23" cx="58.8" cy="114.6" r=".3"/><circle class="st23" cx="90.8" cy="102.5" r=".9"/><circle class="st23" cx="140.3" cy="91.5" r=".7"/><circle class="st23" cx="129" cy="93.5" r=".7"/><circle class="st23" cx="134.7" cy="90.5" r=".7"/><circle class="st23" cx="141" cy="95.2" r=".7"/><circle class="st23" cx="144.5" cy="93.2" r=".7"/><circle class="st23" cx="149.4" cy="93.5" r=".7"/><circle class="st23" cx="153.7" cy="96.3" r=".3"/><circle class="st23" cx="132.1" cy="95.5" r=".3"/><circle class="st23" cx="127.3" cy="95.9" r=".3"/><circle class="st23" cx="137.7" cy="90.9" r=".3"/><circle class="st23" cx="140.1" cy="98.1" r=".3"/><circle class="st23" cx="144.1" cy="90.8" r=".3"/><circle class="st23" cx="136.8" cy="94.3" r=".7"/><circle class="st23" cx="187.7" cy="112.6" r=".6"/><circle class="st23" cx="184.5" cy="111" r=".6"/><circle class="st23" cx="193.3" cy="110.4" r=".6"/><circle class="st23" cx="187.7" cy="109.2" r=".6"/><circle class="st23" cx="191.1" cy="111.9" r=".2"/><circle class="st23" cx="185.3" cy="109.4" r=".2"/><circle class="st23" cx="182.8" cy="111.6" r=".2"/><circle class="st23" cx="63.1" cy="100.5" r=".9"/><circle class="st23" cx="65.3" cy="110" r=".9"/><circle class="st23" cx="53.6" cy="109.4" r=".9"/><circle class="st23" cx="49" cy="123.4" r=".9"/><circle class="st23" cx="265.4" cy="93.7" r=".7"/><circle class="st23" cx="274" cy="96.3" r=".7"/><circle class="st23" cx="262.4" cy="96.9" r=".7"/><circle class="st23" cx="254.4" cy="91.4" r=".7"/><circle class="st23" cx="241.5" cy="101.1" r=".7"/><circle class="st23" cx="277.4" cy="100.4" r=".7"/><circle class="st23" cx="276.4" cy="105.2" r=".7"/><circle class="st23" cx="272.6" cy="92.7" r=".7"/><circle class="st23" cx="226.2" cy="103.6" r=".7"/><circle class="st23" cx="264.9" cy="102.3" r=".7"/><circle class="st23" cx="235.6" cy="103.3" r=".7"/><circle class="st23" cx="233.5" cy="97.6" r=".7"/><circle class="st23" cx="249.4" cy="104" r=".7"/><circle class="st23" cx="245.3" cy="93.8" r=".7"/><circle class="st23" cx="237.7" cy="96.9" r=".3"/><circle class="st23" cx="270.8" cy="98.5" r=".3"/><circle class="st23" cx="264.2" cy="106" r=".3"/><circle class="st23" cx="231" cy="106.6" r=".3"/><circle class="st23" cx="229.5" cy="110.4" r=".3"/><circle class="st23" cx="237.5" cy="107.1" r=".3"/><circle class="st23" cx="242.3" cy="97.3" r=".3"/><circle class="st23" cx="286.2" cy="108.2" r=".3"/><circle class="st23" cx="251.5" cy="98.7" r=".7"/><circle class="st23" cx="281.2" cy="98.2" r=".7"/><circle class="st23" cx="285" cy="104.1" r=".7"/><circle class="st23" cx="289.9" cy="105.2" r=".7"/><circle class="st23" cx="45.1" cy="118.1" r=".3"/><circle class="st23" cx="69.3" cy="118.5" r=".3"/><circle class="st23" cx="195.3" cy="111" r=".2"/><g id="h"><path class="st14" d="M239.6 69.3h18.2l2.6-4.6h-18.2z"/><path class="st5" d="M244.3 70.3h18.1v6.6h-18.1z"/><path class="st15" d="M242.4 64.7l-2.3 4v6.6l4.2 1.6v-6.6z"/><path class="st13" d="M262.9 71.3h-18.2l-2.5-6.6h18.2z"/></g><g id="c_5_"><path class="st11" d="M124.7 139.1l-.6.6c.1-.6.1-1.5.1-2.6 0-1.7-.1-3.1-.2-3.1s-.2 1.4-.2 3.1c0 1.4.1 2.5.2 2.9 0 .2.1.3.2.4.2.3.4.5 1.4-.3 1-.8 1.4-1.9 1.4-1.9s-1.3.1-2.3.9z"/><path class="st24" d="M122.9 136.1c.3.8.8 1.3 1.1 1.3.3 0 .7-.5 1.1-1.3h-2.2z"/><path class="st25" d="M127.8 132.4l-.3-.2v-.3l-.2-.1-.2-.2h-.2c-.1 0-.1-.1-.1-.1h-.2c-.1 0-.1-.1-.1-.1-.1 0-.2.1-.3 0l-.2-.1-.3.1h-.1l-.1-.1v-.3c0-.1-.1-.1-.2-.2v-.3l-.2-.1v-.2s-.1 0-.2-.1c0 0 0-.2-.1-.2l-.2-.1c-.1-.1-.1-.2-.1-.2h-.3l-.3-.3-.3.3c-.1 0-.2-.1-.3 0-.1 0-.1.1-.1.2-.1 0-.2 0-.2.1 0 0 0 .1-.1.2 0 0-.1 0-.2.1v.2l-.2.1v.3c0 .1-.1.1-.2.2v.3l-.1.1-.3-.1-.2.1c-.1 0-.2-.1-.3 0-.1 0-.1.1-.1.1-.1 0-.1-.1-.2 0-.1 0-.1.1-.1.1h-.2l-.2.2c-.1 0-.2 0-.2.1v.3c-.1.1-.3.1-.3.2l.2.3c0 .1-.1.2-.1.2l.1.2v.3c0 .1.1.1.2.1v.2s.1 0 .2.1v.2c0 .1.2.1.2.1l.1.2c.1 0 .2 0 .3.1v.2c0 .1-.1.1-.2.2v.2c0 .1-.1.2-.1.2l.1.2-.1.2.1.2-.1.2.1.2v.2c0 .1.2.1.2.1l.1.4c.1.1.3-.1.4-.1l.2.2.2-.1c.1 0 .2.1.2.1l.2-.1c.1 0 .1.1.2 0 .1 0 .1-.1.1-.1h.2l.2-.2h.2l.2-.2h.2l.2.2h.2l.2.2h.2c.1 0 .1.1.1.1.1 0 .1-.1.2 0l.2.1c.1 0 .2-.1.2-.1.1 0 .2.1.2.1l.2-.2c.1-.1.3.1.4.1l.1-.4c.1 0 .2-.1.2-.1v-.2l.1-.2-.1-.2.1-.2-.1-.2.1-.2c0-.1-.1-.2-.1-.2v-.2c0-.1-.1-.1-.2-.2v-.1s0-.1.1-.1.2 0 .3-.1c.1 0 .1-.1.1-.2.1 0 .2-.1.2-.1v-.2s.1 0 .2-.1v-.2c0-.1.1-.1.2-.1v-.3l.1-.2c0-.1-.1-.2-.1-.2.2 0 .4-.2.4-.3z"/><path class="st24" d="M125.5 133.2l-.8.2c-.3.1-.6.2-.7.2l.3-.2c.2-.1.3-.2.3-.2s-.1.1-.3.2c-.1.1-.2.2-.3.2.1 0 .2-.2.4-.4l.4-.4-.4.4-.3.4c0-.1.1-.2.2-.4.1-.3.3-.5.2-.5 0 0-.1.2-.3.5-.1.2-.2.3-.2.4l.1-.3c.1-.2.1-.4.1-.4s-.1.2-.1.4l-.1.3v-1.5.8.7l-.1-.3c-.1-.2-.1-.4-.1-.4s0 .2.1.4.1.3.1.3l-.2-.5c-.1-.3-.3-.5-.3-.5s.1.2.2.5c.1.2.2.3.2.4-.1-.1-.2-.2-.3-.4l-.4-.4.4.4c.1.2.3.3.3.3l-.3-.2c-.2-.1-.3-.2-.3-.2s.1.1.3.2c.1.1.2.2.3.2-.1-.1-.4-.2-.7-.3l-.8-.2s.3.2.8.3c.3.1.6.2.7.2h-.7.4.4c-.1 0-.3 0-.5.1-.3.1-.5.1-.5.1s.2 0 .5-.1c.2 0 .4-.1.5-.1-.1 0-.2.1-.4.2-.3.1-.5.2-.5.2s.2-.1.5-.2l.4-.2c-.1 0-.2.1-.3.2-.2.1-.3.2-.3.2s.2-.1.3-.2l.3-.2c-.1.1-.3.3-.5.6-.3.4-.5.7-.4.7 0 0 .2-.3.5-.6.2-.3.3-.5.4-.6l-.1.3c-.1.2-.1.4-.1.4s.1-.2.1-.4.1-.3.1-.3c0 .1 0 .3-.1.5 0 .3-.1.5-.1.5s0-.2.1-.5c0-.2 0-.4.1-.5 0 .1 0 .3.1.5 0 .3.1.5.1.5s0-.2-.1-.5c0-.2-.1-.4-.1-.5 0 .1 0 .2.1.3.1.2.1.4.1.4s0-.2-.1-.4l-.1-.3c.1.1.2.3.4.6.3.4.5.6.5.6s-.2-.3-.4-.7c-.2-.3-.4-.5-.4-.6l.3.2c.2.1.3.2.3.2s-.1-.1-.3-.2c-.1-.1-.3-.2-.3-.2l.5.2c.3.1.5.2.5.2s-.2-.1-.5-.2l-.4-.2c.1 0 .3.1.5.1.3.1.5.1.5.1s-.2-.1-.5-.1c-.2 0-.4-.1-.5-.1.1 0 .4-.1.8-.2.2.1.5 0 .5 0zm-1.5.5z"/><circle class="st25" cx="123.9" cy="133.6" r=".3"/><path class="st6" d="M123.1 139.5c.8.9 1.1.8 1.4.5s.5-.5-.4-1.4c-.8-.9-2-1.3-2-1.3s.1 1.3 1 2.2z"/><path class="st11" d="M122.6 140.2c1.5.7 1.7.4 1.9 0 .2-.4.3-.8-1.2-1.5s-3-.5-3-.5.8 1.3 2.3 2z"/></g><g id="c_4_"><path class="st11" d="M114.8 139.1l-.6.6c.1-.6.1-1.5.1-2.6 0-1.7-.1-3.1-.2-3.1s-.2 1.4-.2 3.1c0 1.4.1 2.5.2 2.9 0 .2.1.3.2.4.2.3.4.5 1.4-.3 1-.8 1.4-1.9 1.4-1.9s-1.3.1-2.3.9z"/><path class="st24" d="M113 136.1c.3.8.8 1.3 1.1 1.3.3 0 .7-.5 1.1-1.3h-2.2z"/><path class="st25" d="M117.9 132.4l-.3-.2v-.3l-.2-.1-.2-.2h-.2c-.1 0-.1-.1-.1-.1h-.2c-.1 0-.1-.1-.1-.1-.1 0-.2.1-.3 0l-.2-.1-.3.1h-.1l-.1-.1v-.3c0-.1-.1-.1-.2-.2v-.3l-.2-.1v-.2s-.1 0-.2-.1c0 0 0-.2-.1-.2l-.2-.1c-.1-.1-.1-.2-.1-.2h-.3l-.3-.3-.3.3c-.1 0-.2-.1-.3 0-.1 0-.1.1-.1.2-.1 0-.2 0-.2.1 0 0 0 .1-.1.2 0 0-.1 0-.2.1v.2l-.2.1v.3c0 .1-.1.1-.2.2v.3l-.1.1-.3-.1-.2.1c-.1 0-.2-.1-.3 0-.1 0-.1.1-.1.1-.1 0-.1-.1-.2 0-.1 0-.1.1-.1.1h-.2l-.2.2c-.1 0-.2 0-.2.1v.3c-.1.1-.3.1-.3.2l.2.3c0 .1-.1.2-.1.2l.1.2v.3c0 .1.1.1.2.1v.2s.1 0 .2.1v.2c0 .1.2.1.2.1l.1.2c.1 0 .2 0 .3.1v.2c0 .1-.1.1-.2.2v.2c0 .1-.1.2-.1.2l.1.2-.1.2.1.2-.1.2.1.2v.2c0 .1.2.1.2.1l.1.4c.1.1.3-.1.4-.1l.2.2.2-.1c.1 0 .2.1.2.1l.2-.1c.1 0 .1.1.2 0 .1 0 .1-.1.1-.1h.2l.2-.2h.2l.2-.2h.2l.2.2h.2l.2.2h.2c.1 0 .1.1.1.1.1 0 .1-.1.2 0l.2.1c.1 0 .2-.1.2-.1.1 0 .2.1.2.1l.2-.2c.1-.1.3.1.4.1l.1-.4c.1 0 .2-.1.2-.1v-.2l.1-.2-.1-.2.1-.2-.1-.2.1-.2c0-.1-.1-.2-.1-.2v-.2c0-.1-.1-.1-.2-.2v-.1s0-.1.1-.1.2 0 .3-.1c.1 0 .1-.1.1-.2.1 0 .2-.1.2-.1v-.2s.1 0 .2-.1v-.2c0-.1.1-.1.2-.1v-.3l.1-.2c0-.1-.1-.2-.1-.2.2 0 .4-.2.4-.3z"/><path class="st24" d="M115.6 133.2l-.8.2c-.3.1-.6.2-.7.2l.3-.2c.2-.1.3-.2.3-.2s-.1.1-.3.2c-.1.1-.2.2-.3.2.1 0 .2-.2.4-.4l.4-.4-.4.4-.3.4c0-.1.1-.2.2-.4.1-.3.3-.5.2-.5 0 0-.1.2-.3.5-.1.2-.2.3-.2.4l.1-.3c.1-.2.1-.4.1-.4s-.1.2-.1.4l-.1.3v-1.5.8.7l-.1-.3c-.1-.2-.1-.4-.1-.4s0 .2.1.4.1.3.1.3l-.2-.5c-.1-.3-.3-.5-.3-.5s.1.2.2.5c.1.2.2.3.2.4-.1-.1-.2-.2-.3-.4l-.4-.4.4.4c.1.2.3.3.3.3l-.3-.2c-.2-.1-.3-.2-.3-.2s.1.1.3.2c.1.1.2.2.3.2-.1-.1-.4-.2-.7-.3l-.8-.2s.3.2.8.3c.3.1.6.2.7.2h-.7.4.4c-.1 0-.3 0-.5.1-.3.1-.5.1-.5.1s.2 0 .5-.1c.2 0 .4-.1.5-.1-.1 0-.2.1-.4.2-.3.1-.5.2-.5.2s.2-.1.5-.2l.4-.2c-.1 0-.2.1-.3.2-.2.1-.3.2-.3.2s.2-.1.3-.2l.3-.2c-.1.1-.3.3-.5.6-.3.4-.5.7-.4.7 0 0 .2-.3.5-.6.2-.3.3-.5.4-.6l-.1.3c-.1.2-.1.4-.1.4s.1-.2.1-.4.1-.3.1-.3c0 .1 0 .3-.1.5 0 .3-.1.5-.1.5s0-.2.1-.5c0-.2 0-.4.1-.5 0 .1 0 .3.1.5 0 .3.1.5.1.5s0-.2-.1-.5c0-.2-.1-.4-.1-.5 0 .1 0 .2.1.3.1.2.1.4.1.4s0-.2-.1-.4l-.1-.3c.1.1.2.3.4.6.3.4.5.6.5.6s-.2-.3-.4-.7c-.2-.3-.4-.5-.4-.6l.3.2c.2.1.3.2.3.2s-.1-.1-.3-.2c-.1-.1-.3-.2-.3-.2l.5.2c.3.1.5.2.5.2s-.2-.1-.5-.2l-.4-.2c.1 0 .3.1.5.1.3.1.5.1.5.1s-.2-.1-.5-.1c-.2 0-.4-.1-.5-.1.1 0 .4-.1.8-.2.1.1.5 0 .5 0zm-1.6.5z"/><circle class="st25" cx="114" cy="133.6" r=".3"/><path class="st6" d="M113.1 139.5c.8.9 1.1.8 1.4.5.3-.2.5-.5-.4-1.4-.8-.9-2-1.3-2-1.3s.2 1.3 1 2.2z"/><path class="st11" d="M112.7 140.2c1.5.7 1.7.4 1.9 0 .2-.4.3-.8-1.2-1.5s-3-.5-3-.5.8 1.3 2.3 2z"/></g><g id="c_3_"><path class="st11" d="M104.9 139.1l-.6.6c.1-.6.1-1.5.1-2.6 0-1.7-.1-3.1-.2-3.1s-.2 1.4-.2 3.1c0 1.4.1 2.5.2 2.9 0 .2.1.3.2.4.2.3.4.5 1.4-.3 1-.8 1.4-1.9 1.4-1.9s-1.3.1-2.3.9z"/><path class="st24" d="M103.1 136.1c.3.8.8 1.3 1.1 1.3.3 0 .7-.5 1.1-1.3h-2.2z"/><path class="st25" d="M107.9 132.4l-.3-.2v-.3l-.2-.1-.2-.2h-.2c-.1 0-.1-.1-.1-.1h-.2c-.1 0-.1-.1-.1-.1-.1 0-.2.1-.3 0l-.2-.1-.3.1h-.1l-.1-.1v-.3c0-.1-.1-.1-.2-.2v-.3l-.2-.1v-.2s-.1 0-.2-.1c0 0 0-.2-.1-.2l-.2-.1c-.1-.1-.1-.2-.1-.2h-.3l-.3-.3-.3.3c-.1 0-.2-.1-.3 0-.1 0-.1.1-.1.2-.1 0-.2 0-.2.1 0 0 0 .1-.1.2 0 0-.1 0-.2.1v.2l-.2.1v.3c0 .1-.1.1-.2.2v.3l-.1.1-.3-.1-.2.1c-.1 0-.2-.1-.3 0-.1 0-.1.1-.1.1-.1 0-.1-.1-.2 0-.1 0-.1.1-.1.1h-.2l-.2.2c-.1 0-.2 0-.2.1v.3c-.1.1-.3.1-.3.2l.2.3c0 .1-.1.2-.1.2l.1.2v.3c0 .1.1.1.2.1v.2s.1 0 .2.1v.2c0 .1.2.1.2.1l.1.2c.1 0 .2 0 .3.1v.2c0 .1-.1.1-.2.2v.2c0 .1-.1.2-.1.2l.1.2-.1.2.1.2-.1.2.1.2v.2c0 .1.2.1.2.1l.1.4c.1.1.3-.1.4-.1l.2.2.2-.1c.1 0 .2.1.2.1l.2-.1c.1 0 .1.1.2 0 .1 0 .1-.1.1-.1h.2l.2-.2h.2l.2-.2h.2l.2.2h.2l.2.2h.2c.1 0 .1.1.1.1.1 0 .1-.1.2 0l.2.1c.1 0 .2-.1.2-.1.1 0 .2.1.2.1l.2-.2c.1-.1.3.1.4.1l.1-.4c.1 0 .2-.1.2-.1v-.2l.1-.2-.1-.2.1-.2-.1-.2.1-.2c0-.1-.1-.2-.1-.2v-.2c0-.1-.1-.1-.2-.2v-.1s0-.1.1-.1.2 0 .3-.1c.1 0 .1-.1.1-.2.1 0 .2-.1.2-.1v-.2s.1 0 .2-.1v-.2c0-.1.1-.1.2-.1v-.3l.1-.2c0-.1-.1-.2-.1-.2.2 0 .5-.2.4-.3z"/><path class="st24" d="M105.6 133.2l-.8.2c-.3.1-.6.2-.7.2l.3-.2c.2-.1.3-.2.3-.2s-.1.1-.3.2c-.1.1-.2.2-.3.2.1 0 .2-.2.4-.4l.4-.4-.4.4-.3.4c0-.1.1-.2.2-.4.1-.3.3-.5.2-.5 0 0-.1.2-.3.5-.1.2-.2.3-.2.4l.1-.3c.1-.2.1-.4.1-.4s-.1.2-.1.4l-.1.3v-1.5.8.7l-.1-.3c-.1-.2-.1-.4-.1-.4s0 .2.1.4.1.3.1.3l-.2-.5c-.1-.3-.3-.5-.3-.5s.1.2.2.5c.1.2.2.3.2.4-.1-.1-.2-.2-.3-.4l-.4-.4.4.4c.1.2.3.3.3.3l-.3-.2c-.2-.1-.3-.2-.3-.2s.1.1.3.2c.1.1.2.2.3.2-.1-.1-.4-.2-.7-.3l-.8-.2s.3.2.8.3c.3.1.6.2.7.2h-.7.4.4c-.1 0-.3 0-.5.1-.3.1-.5.1-.5.1s.2 0 .5-.1c.2 0 .4-.1.5-.1-.1 0-.2.1-.4.2-.3.1-.5.2-.5.2s.2-.1.5-.2l.4-.2c-.1 0-.2.1-.3.2-.2.1-.3.2-.3.2s.2-.1.3-.2l.3-.2c-.1.1-.3.3-.5.6-.3.4-.5.7-.4.7 0 0 .2-.3.5-.6.2-.3.3-.5.4-.6l-.1.3c-.1.2-.1.4-.1.4s.1-.2.1-.4.1-.3.1-.3c0 .1 0 .3-.1.5 0 .3-.1.5-.1.5s0-.2.1-.5c0-.2 0-.4.1-.5 0 .1 0 .3.1.5 0 .3.1.5.1.5s0-.2-.1-.5c0-.2-.1-.4-.1-.5 0 .1 0 .2.1.3.1.2.1.4.1.4s0-.2-.1-.4l-.1-.3c.1.1.2.3.4.6.3.4.5.6.5.6s-.2-.3-.4-.7c-.2-.3-.4-.5-.4-.6l.3.2c.2.1.3.2.3.2s-.1-.1-.3-.2c-.1-.1-.3-.2-.3-.2l.5.2c.3.1.5.2.5.2s-.2-.1-.5-.2l-.4-.2c.1 0 .3.1.5.1.3.1.5.1.5.1s-.2-.1-.5-.1c-.2 0-.4-.1-.5-.1.1 0 .4-.1.8-.2.2.1.5 0 .5 0zm-1.5.5z"/><circle class="st25" cx="104.1" cy="133.6" r=".3"/><path class="st6" d="M103.2 139.5c.8.9 1.1.8 1.4.5s.5-.5-.4-1.4c-.8-.9-2-1.3-2-1.3s.2 1.3 1 2.2z"/><path class="st11" d="M102.7 140.2c1.5.7 1.7.4 1.9 0 .2-.4.3-.8-1.2-1.5s-3-.5-3-.5.9 1.3 2.3 2z"/></g><g id="c_2_"><path class="st11" d="M94.9 139.1l-.6.6c.1-.6.1-1.5.1-2.6 0-1.7-.1-3.1-.2-3.1s-.2 1.4-.2 3.1c0 1.4.1 2.5.2 2.9 0 .2.1.3.2.4.2.3.4.5 1.4-.3 1-.8 1.4-1.9 1.4-1.9s-1.3.1-2.3.9z"/><path class="st24" d="M93.1 136.1c.3.8.8 1.3 1.1 1.3.3 0 .7-.5 1.1-1.3h-2.2z"/><path class="st25" d="M98 132.4l-.3-.2v-.3l-.2-.1-.2-.2h-.2c-.1 0-.1-.1-.1-.1h-.2c-.1 0-.1-.1-.1-.1-.1 0-.2.1-.3 0l-.2-.1-.3.1h-.1l-.1-.1v-.3c0-.1-.1-.1-.2-.2v-.3l-.2-.1v-.2s-.1 0-.2-.1c0 0 0-.2-.1-.2l-.2-.1c-.1-.1-.1-.2-.1-.2h-.3l-.3-.3-.3.3c-.1 0-.2-.1-.3 0-.1 0-.1.1-.1.2-.1 0-.2 0-.2.1 0 0 0 .1-.1.2 0 0-.1 0-.2.1v.2l-.2.1v.3c0 .1-.1.1-.2.2v.3l-.1.1-.3-.1-.2.1c-.1 0-.2-.1-.3 0-.1 0-.1.1-.1.1-.1 0-.1-.1-.2 0-.1 0-.1.1-.1.1h-.2l-.2.2c-.1 0-.2 0-.2.1v.3c-.1.1-.3.1-.3.2l.2.3c0 .1-.1.2-.1.2l.1.2v.3c0 .1.1.1.2.1v.2s.1 0 .2.1v.2c0 .1.2.1.2.1l.1.2c.1 0 .2 0 .3.1v.2c0 .1-.1.1-.2.2v.2c0 .1-.1.2-.1.2l.1.2-.1.2.1.2-.1.2.1.2v.2c0 .1.2.1.2.1l.1.4c.1.1.3-.1.4-.1l.2.2.2-.1c.1 0 .2.1.2.1l.2-.1c.1 0 .1.1.2 0 .1 0 .1-.1.1-.1h.2l.2-.2h.2l.2-.2h.2l.2.2h.2l.2.2h.2c.1 0 .1.1.1.1.1 0 .1-.1.2 0l.2.1c.1 0 .2-.1.2-.1.1 0 .2.1.2.1l.2-.2c.1-.1.3.1.4.1l.1-.4c.1 0 .2-.1.2-.1v-.2l.1-.2-.1-.2.1-.2-.1-.2.1-.2c0-.1-.1-.2-.1-.2v-.2c0-.1-.1-.1-.2-.2v-.1s0-.1.1-.1.2 0 .3-.1c.1 0 .1-.1.1-.2.1 0 .2-.1.2-.1v-.2s.1 0 .2-.1v-.2c0-.1.1-.1.2-.1v-.3l.1-.2c0-.1-.1-.2-.1-.2.2 0 .4-.2.4-.3z"/><path class="st24" d="M95.7 133.2l-.8.2c-.3.1-.6.2-.7.2l.3-.2c.2-.1.3-.2.3-.2s-.1.1-.3.2c-.1.1-.2.2-.3.2.1 0 .2-.2.4-.4l.4-.4-.4.4-.3.4c0-.1.1-.2.2-.4.1-.3.3-.5.2-.5 0 0-.1.2-.3.5-.1.2-.2.3-.2.4l.1-.3c.1-.2.1-.4.1-.4s-.1.2-.1.4l-.1.3v-1.5.8.7l-.1-.3c-.1-.2-.1-.4-.1-.4s0 .2.1.4.1.3.1.3l-.2-.5c-.1-.3-.3-.5-.3-.5s.1.2.2.5c.1.2.2.3.2.4-.1-.1-.2-.2-.3-.4l-.4-.4.4.4c.1.2.3.3.3.3l-.3-.2c-.2-.1-.3-.2-.3-.2s.1.1.3.2c.1.1.2.2.3.2-.1-.1-.4-.2-.7-.3l-.8-.2s.3.2.8.3c.3.1.6.2.7.2h-.7.4.4c-.1 0-.3 0-.5.1-.3.1-.5.1-.5.1s.2 0 .5-.1c.2 0 .4-.1.5-.1-.1 0-.2.1-.4.2-.3.1-.5.2-.5.2s.2-.1.5-.2l.4-.2c-.1 0-.2.1-.3.2-.2.1-.3.2-.3.2s.2-.1.3-.2l.3-.2c-.1.1-.3.3-.5.6-.3.4-.5.7-.4.7 0 0 .2-.3.5-.6.2-.3.3-.5.4-.6l-.1.3c-.1.2-.1.4-.1.4s.1-.2.1-.4.1-.3.1-.3c0 .1 0 .3-.1.5 0 .3-.1.5-.1.5s0-.2.1-.5c0-.2 0-.4.1-.5 0 .1 0 .3.1.5 0 .3.1.5.1.5s0-.2-.1-.5c0-.2-.1-.4-.1-.5 0 .1 0 .2.1.3.1.2.1.4.1.4s0-.2-.1-.4l-.1-.3c.1.1.2.3.4.6.3.4.5.6.5.6s-.2-.3-.4-.7c-.2-.3-.4-.5-.4-.6l.3.2c.2.1.3.2.3.2s-.1-.1-.3-.2c-.1-.1-.3-.2-.3-.2l.5.2c.3.1.5.2.5.2s-.2-.1-.5-.2l-.4-.2c.1 0 .3.1.5.1.3.1.5.1.5.1s-.2-.1-.5-.1c-.2 0-.4-.1-.5-.1.1 0 .4-.1.8-.2.1.1.5 0 .5 0zm-1.6.5z"/><circle class="st25" cx="94.1" cy="133.6" r=".3"/><path class="st6" d="M93.3 139.5c.8.9 1.1.8 1.4.5.3-.2.5-.5-.4-1.4-.8-.9-2-1.3-2-1.3s.1 1.3 1 2.2z"/><path class="st11" d="M92.8 140.2c1.5.7 1.7.4 1.9 0 .2-.4.3-.8-1.2-1.5s-3-.5-3-.5.8 1.3 2.3 2z"/></g><g id="c_1_"><path class="st11" d="M190.6 139.1l-.6.6c.1-.6.1-1.5.1-2.6 0-1.7-.1-3.1-.2-3.1s-.2 1.4-.2 3.1c0 1.4.1 2.5.2 2.9 0 .2.1.3.2.4.2.3.4.5 1.4-.3 1-.8 1.4-1.9 1.4-1.9s-1.3.1-2.3.9z"/><path class="st24" d="M188.8 136.1c.3.8.8 1.3 1.1 1.3.3 0 .7-.5 1.1-1.3h-2.2z"/><path class="st25" d="M193.7 132.4l-.3-.2v-.3l-.2-.1-.2-.2h-.2c-.1 0-.1-.1-.1-.1h-.2c-.1 0-.1-.1-.1-.1-.1 0-.2.1-.3 0l-.2-.1-.3.1h-.1l-.1-.1v-.3c0-.1-.1-.1-.2-.2v-.3l-.2-.1v-.2s-.1 0-.2-.1c0 0 0-.2-.1-.2l-.2-.1c-.1-.1-.1-.2-.1-.2h-.3l-.3-.3-.3.3c-.1 0-.2-.1-.3 0-.1 0-.1.1-.1.2-.1 0-.2 0-.2.1 0 0 0 .1-.1.2 0 0-.1 0-.2.1v.2l-.2.1v.3c0 .1-.1.1-.2.2v.3l-.1.1-.3-.1-.2.1c-.1 0-.2-.1-.3 0-.1 0-.1.1-.1.1-.1 0-.1-.1-.2 0-.1 0-.1.1-.1.1h-.2l-.2.2c-.1 0-.2 0-.2.1v.3c-.1.1-.3.1-.3.2l.2.3c0 .1-.1.2-.1.2l.1.2v.3c0 .1.1.1.2.1v.2s.1 0 .2.1v.2c0 .1.2.1.2.1l.1.2c.1 0 .2 0 .3.1v.2c0 .1-.1.1-.2.2v.2c0 .1-.1.2-.1.2l.1.2-.1.2.1.2-.1.2.1.2v.2c0 .1.2.1.2.1l.1.4c.1.1.3-.1.4-.1l.2.2.2-.1c.1 0 .2.1.2.1l.2-.1c.1 0 .1.1.2 0 .1 0 .1-.1.1-.1h.2l.2-.2h.2l.2-.2h.2l.2.2h.2l.2.2h.2c.1 0 .1.1.1.1.1 0 .1-.1.2 0l.2.1c.1 0 .2-.1.2-.1.1 0 .2.1.2.1l.2-.2c.1-.1.3.1.4.1l.1-.4c.1 0 .2-.1.2-.1v-.2l.1-.2-.1-.2.1-.2-.1-.2.1-.2c0-.1-.1-.2-.1-.2v-.2c0-.1-.1-.1-.2-.2v-.1s0-.1.1-.1.2 0 .3-.1c.1 0 .1-.1.1-.2.1 0 .2-.1.2-.1v-.2s.1 0 .2-.1v-.2c0-.1.1-.1.2-.1v-.3l.1-.2c0-.1-.1-.2-.1-.2.2 0 .4-.2.4-.3z"/><path class="st24" d="M191.3 133.2l-.8.2c-.3.1-.6.2-.7.2l.3-.2c.2-.1.3-.2.3-.2s-.1.1-.3.2c-.1.1-.2.2-.3.2.1 0 .2-.2.4-.4l.4-.4-.4.4-.3.4c0-.1.1-.2.2-.4.1-.3.3-.5.2-.5 0 0-.1.2-.3.5-.1.2-.2.3-.2.4l.1-.3c.1-.2.1-.4.1-.4s-.1.2-.1.4l-.1.3v-1.5.8.7l-.1-.3c-.1-.2-.1-.4-.1-.4s0 .2.1.4.1.3.1.3l-.2-.5c-.1-.3-.3-.5-.3-.5s.1.2.2.5c.1.2.2.3.2.4-.1-.1-.2-.2-.3-.4l-.4-.4.4.4c.1.2.3.3.3.3l-.3-.2c-.2-.1-.3-.2-.3-.2s.1.1.3.2c.1.1.2.2.3.2-.1-.1-.4-.2-.7-.3l-.8-.2s.3.2.8.3c.3.1.6.2.7.2h-.7.4.4c-.1 0-.3 0-.5.1-.3.1-.5.1-.5.1s.2 0 .5-.1c.2 0 .4-.1.5-.1-.1 0-.2.1-.4.2-.3.1-.5.2-.5.2s.2-.1.5-.2l.4-.2c-.1 0-.2.1-.3.2-.2.1-.3.2-.3.2s.2-.1.3-.2l.3-.2c-.1.1-.3.3-.5.6-.3.4-.5.7-.4.7 0 0 .2-.3.5-.6.2-.3.3-.5.4-.6l-.1.3c-.1.2-.1.4-.1.4s.1-.2.1-.4.1-.3.1-.3c0 .1 0 .3-.1.5 0 .3-.1.5-.1.5s0-.2.1-.5c0-.2 0-.4.1-.5 0 .1 0 .3.1.5 0 .3.1.5.1.5s0-.2-.1-.5c0-.2-.1-.4-.1-.5 0 .1 0 .2.1.3.1.2.1.4.1.4s0-.2-.1-.4l-.1-.3c.1.1.2.3.4.6.3.4.5.6.5.6s-.2-.3-.4-.7c-.2-.3-.4-.5-.4-.6l.3.2c.2.1.3.2.3.2s-.1-.1-.3-.2c-.1-.1-.3-.2-.3-.2l.5.2c.3.1.5.2.5.2s-.2-.1-.5-.2l-.4-.2c.1 0 .3.1.5.1.3.1.5.1.5.1s-.2-.1-.5-.1c-.2 0-.4-.1-.5-.1.1 0 .4-.1.8-.2.2.1.6 0 .5 0zm-1.5.5z"/><circle class="st25" cx="189.8" cy="133.6" r=".3"/><path class="st6" d="M188.9 139.5c.8.9 1.1.8 1.4.5.3-.2.5-.5-.4-1.4-.8-.9-2-1.3-2-1.3s.2 1.3 1 2.2z"/><path class="st11" d="M188.5 140.2c1.5.7 1.7.4 1.9 0 .2-.4.3-.8-1.2-1.5l-3-.5s.8 1.3 2.3 2z"/></g><g id="c"><path class="st11" d="M201.2 139.1l-.6.6c.1-.6.1-1.5.1-2.6 0-1.7-.1-3.1-.2-3.1s-.2 1.4-.2 3.1c0 1.4.1 2.5.2 2.9 0 .2.1.3.2.4.2.3.4.5 1.4-.3l1.4-1.9s-1.3.1-2.3.9z"/><path class="st24" d="M199.4 136.1c.3.8.8 1.3 1.1 1.3.3 0 .7-.5 1.1-1.3h-2.2z"/><path class="st25" d="M204.3 132.4l-.3-.2v-.3l-.2-.1-.2-.2h-.2c-.1 0-.1-.1-.1-.1h-.2c-.1 0-.1-.1-.1-.1-.1 0-.2.1-.3 0l-.2-.1-.3.1h-.1l-.1-.1v-.3c0-.1-.1-.1-.2-.2v-.3l-.2-.1v-.2s-.1 0-.2-.1c0 0 0-.2-.1-.2l-.2-.1c-.1-.1-.1-.2-.1-.2h-.3l-.3-.3-.3.3c-.1 0-.2-.1-.3 0-.1 0-.1.1-.1.2-.1 0-.2 0-.2.1 0 0 0 .1-.1.2 0 0-.1 0-.2.1v.2l-.2.1v.3c0 .1-.1.1-.2.2v.3l-.1.1-.3-.1-.2.1c-.1 0-.2-.1-.3 0-.1 0-.1.1-.1.1-.1 0-.1-.1-.2 0-.1 0-.1.1-.1.1h-.2l-.2.2c-.1 0-.2 0-.2.1v.3c-.1.1-.3.1-.3.2l.2.3c0 .1-.1.2-.1.2l.1.2v.3c0 .1.1.1.2.1v.2s.1 0 .2.1v.2c0 .1.2.1.2.1l.1.2c.1 0 .2 0 .3.1v.2c0 .1-.1.1-.2.2v.2c0 .1-.1.2-.1.2l.1.2-.1.2.1.2-.1.2.1.2v.2c0 .1.2.1.2.1l.1.4c.1.1.3-.1.4-.1l.2.2.2-.1c.1 0 .2.1.2.1l.2-.1c.1 0 .1.1.2 0 .1 0 .1-.1.1-.1h.2l.2-.2h.2l.2-.2h.2l.2.2h.2l.2.2h.2c.1 0 .1.1.1.1.1 0 .1-.1.2 0l.2.1c.1 0 .2-.1.2-.1.1 0 .2.1.2.1l.2-.2c.1-.1.3.1.4.1l.1-.4c.1 0 .2-.1.2-.1v-.2l.1-.2-.1-.2.1-.2-.1-.2.1-.2c0-.1-.1-.2-.1-.2v-.2c0-.1-.1-.1-.2-.2v-.1s0-.1.1-.1.2 0 .3-.1c.1 0 .1-.1.1-.2.1 0 .2-.1.2-.1v-.2s.1 0 .2-.1v-.2c0-.1.1-.1.2-.1v-.3l.1-.2c0-.1-.1-.2-.1-.2.2 0 .4-.2.4-.3z"/><path class="st24" d="M202 133.2l-.8.2c-.3.1-.6.2-.7.2l.3-.2c.2-.1.3-.2.3-.2s-.1.1-.3.2c-.1.1-.2.2-.3.2.1 0 .2-.2.4-.4l.4-.4-.4.4-.3.4c0-.1.1-.2.2-.4.1-.3.3-.5.2-.5 0 0-.1.2-.3.5-.1.2-.2.3-.2.4l.1-.3c.1-.2.1-.4.1-.4s-.1.2-.1.4l-.1.3v-1.5.8.7l-.1-.3c-.1-.2-.1-.4-.1-.4s0 .2.1.4.1.3.1.3l-.2-.5c-.1-.3-.3-.5-.3-.5s.1.2.2.5c.1.2.2.3.2.4-.1-.1-.2-.2-.3-.4l-.4-.4.4.4c.1.2.3.3.3.3l-.3-.2c-.2-.1-.3-.2-.3-.2s.1.1.3.2c.1.1.2.2.3.2-.1-.1-.4-.2-.7-.3l-.8-.2s.3.2.8.3c.3.1.6.2.7.2h-.7.4.4c-.1 0-.3 0-.5.1-.3.1-.5.1-.5.1s.2 0 .5-.1c.2 0 .4-.1.5-.1-.1 0-.2.1-.4.2-.3.1-.5.2-.5.2s.2-.1.5-.2l.4-.2c-.1 0-.2.1-.3.2-.2.1-.3.2-.3.2s.2-.1.3-.2l.3-.2c-.1.1-.3.3-.5.6-.3.4-.5.7-.4.7 0 0 .2-.3.5-.6.2-.3.3-.5.4-.6l-.1.3c-.1.2-.1.4-.1.4s.1-.2.1-.4.1-.3.1-.3c0 .1 0 .3-.1.5 0 .3-.1.5-.1.5s0-.2.1-.5c0-.2 0-.4.1-.5 0 .1 0 .3.1.5 0 .3.1.5.1.5s0-.2-.1-.5c0-.2-.1-.4-.1-.5 0 .1 0 .2.1.3.1.2.1.4.1.4s0-.2-.1-.4l-.1-.3c.1.1.2.3.4.6.3.4.5.6.5.6s-.2-.3-.4-.7c-.2-.3-.4-.5-.4-.6l.3.2c.2.1.3.2.3.2s-.1-.1-.3-.2c-.1-.1-.3-.2-.3-.2l.5.2c.3.1.5.2.5.2s-.2-.1-.5-.2l-.4-.2c.1 0 .3.1.5.1.3.1.5.1.5.1s-.2-.1-.5-.1c-.2 0-.4-.1-.5-.1.1 0 .4-.1.8-.2.1.1.5 0 .5 0zm-1.6.5z"/><circle class="st25" cx="200.4" cy="133.6" r=".3"/><path class="st6" d="M199.6 139.5c.8.9 1.1.8 1.4.5.3-.2.5-.5-.4-1.4-.8-.9-2-1.3-2-1.3s.1 1.3 1 2.2z"/><path class="st11" d="M199.1 140.2c1.5.7 1.7.4 1.9 0 .2-.4.3-.8-1.2-1.5s-3-.5-3-.5.8 1.3 2.3 2z"/></g><g id="m_2_"><g id="m_10_"><path class="st26" d="M33.3 137.1v2.3c0 .7-.5 1.2-1.2 1.2h-.5c-.7 0-1.2-.5-1.2-1.2v-2.3h2.9z"/><path class="st6" d="M38.1 130.6c0 5-2.8 7.2-6.3 7.2s-6.3-2.2-6.3-7.2 6.3-15.6 6.3-15.6 6.3 10.6 6.3 15.6z"/><path class="st27" d="M31.8 115s6.3 10.6 6.3 15.6-2.8 7.2-6.3 7.2v-22.8z"/></g><g id="m_9_"><path class="st26" d="M48.2 137.1v2.3c0 .7-.5 1.2-1.2 1.2h-.5c-.7 0-1.2-.5-1.2-1.2v-2.3h2.9z"/><path class="st6" d="M53.1 130.6c0 5-2.8 7.2-6.3 7.2s-6.3-2.2-6.3-7.2 6.3-15.6 6.3-15.6 6.3 10.6 6.3 15.6z"/><path class="st27" d="M46.8 115s6.3 10.6 6.3 15.6-2.8 7.2-6.3 7.2v-22.8z"/></g><g id="m_8_"><path class="st26" d="M63.2 137.1v2.3c0 .7-.5 1.2-1.2 1.2h-.5c-.7 0-1.2-.5-1.2-1.2v-2.3h2.9z"/><path class="st6" d="M68.1 130.6c0 5-2.8 7.2-6.3 7.2s-6.3-2.2-6.3-7.2 6.3-15.6 6.3-15.6 6.3 10.6 6.3 15.6z"/><path class="st27" d="M61.8 115s6.3 10.6 6.3 15.6-2.8 7.2-6.3 7.2v-22.8z"/></g><g id="m_7_"><path class="st26" d="M78.2 137.1v2.3c0 .7-.5 1.2-1.2 1.2h-.5c-.7 0-1.2-.5-1.2-1.2v-2.3h2.9z"/><path class="st6" d="M83.1 130.6c0 5-2.8 7.2-6.3 7.2s-6.3-2.2-6.3-7.2 6.3-15.6 6.3-15.6 6.3 10.6 6.3 15.6z"/><path class="st27" d="M76.8 115s6.3 10.6 6.3 15.6-2.8 7.2-6.3 7.2v-22.8z"/></g></g><g id="m_1_"><g id="m_6_"><path class="st26" d="M220 137.1v2.3c0 .7-.5 1.2-1.2 1.2h-.5c-.7 0-1.2-.5-1.2-1.2v-2.3h2.9z"/><path class="st6" d="M224.8 130.6c0 5-2.8 7.2-6.3 7.2s-6.3-2.2-6.3-7.2 6.3-15.6 6.3-15.6 6.3 10.6 6.3 15.6z"/><path class="st27" d="M218.5 115s6.3 10.6 6.3 15.6-2.8 7.2-6.3 7.2v-22.8z"/></g><g id="m_5_"><path class="st26" d="M235 137.1v2.3c0 .7-.5 1.2-1.2 1.2h-.5c-.7 0-1.2-.5-1.2-1.2v-2.3h2.9z"/><path class="st6" d="M239.8 130.6c0 5-2.8 7.2-6.3 7.2s-6.3-2.2-6.3-7.2 6.3-15.6 6.3-15.6 6.3 10.6 6.3 15.6z"/><path class="st27" d="M233.5 115s6.3 10.6 6.3 15.6-2.8 7.2-6.3 7.2v-22.8z"/></g><g id="m_4_"><path class="st26" d="M249.9 137.1v2.3c0 .7-.5 1.2-1.2 1.2h-.5c-.7 0-1.2-.5-1.2-1.2v-2.3h2.9z"/><path class="st6" d="M254.8 130.6c0 5-2.8 7.2-6.3 7.2s-6.3-2.2-6.3-7.2 6.3-15.6 6.3-15.6 6.3 10.6 6.3 15.6z"/><path class="st27" d="M248.5 115s6.3 10.6 6.3 15.6-2.8 7.2-6.3 7.2v-22.8z"/></g><g id="m"><path class="st26" d="M264.9 137.1v2.3c0 .7-.5 1.2-1.2 1.2h-.5c-.7 0-1.2-.5-1.2-1.2v-2.3h2.9z"/><path class="st6" d="M269.8 130.6c0 5-2.8 7.2-6.3 7.2s-6.3-2.2-6.3-7.2 6.3-15.6 6.3-15.6 6.3 10.6 6.3 15.6z"/><path class="st27" d="M263.5 115s6.3 10.6 6.3 15.6-2.8 7.2-6.3 7.2v-22.8z"/></g></g><path id="y_7_" class="st28" d="M270.9 94.6c0-.2-.1-.2-.1-.2 0-.1-.2 0-.2 0h.1l-.1.2v.1l-.3-.2c-.2-.1-.5.1-1.1.1h-.2c-.1-.1-.2-.1-.3-.1-.1 0-.1-.1-.1-.1l-.4-.2v-.2c0-.2-.1-.3-.1-.4h.1c.2-.1.2-.2.3-.3v-.1s-.1.1-.2.1-.3 0-.3.1v.1c-.2-.1-.4-.1-.5 0v-.30000000000000004h-.1c-.1 0-.2.2-.2.3 0 .1.1.2.1.2s-.1.1-.1.2c-.1.2-.1.3-.1.4l.1.2s-.2 0-.2.2c-.1.1 0 .2.3.2h.2v.2h.1s0-.1.1-.1.2 0 .3-.1l.1.1v.6c0 .2.1.4.3.6.1.2.1.3.1.4v.1s.1.1.1.3v.1c-.2 0-.1.1-.1.2-.1.1 0 .2 0 .2h.3l.1-.1.1-.1c.1 0 0-.1 0-.1v-.4c0-.1 0-.3-.1-.4.2 0 .4.1.7 0 .2 0 .4-.1.5-.1l.3.3c.1.2 0 .3 0 .3v.1c-.2 0-.1.2-.1.2h.1v.1h.3l.1-.1.1-.1v-.2s0-.1.1-.2v-.5c0-.1-.1-.1-.1-.1 0-.1-.1-.2 0-.3v-.1c.4-.5.3-.8.2-1l-.1-.1h.1c-.2.1-.2 0-.2 0zm-.4 1.5z"/><path id="y_6_" class="st5" d="M247.1 90.4h.1l-.1.1c-.1.2-.2.5.3 1v.4l-.1.2v.4c.1.1.1.2.1.2v.2l.1.1.1.1h.3v-.1h.1s0-.2-.1-.2v-.1c0-.1-.1-.1 0-.3.1-.1.1-.2.3-.3.2 0 .4.1.5.1.3 0 .5 0 .7-.1 0 .1-.1.3 0 .4v.5h.1l.1.1h.3v-.2c0-.1 0-.2-.1-.2v-.1c0-.2 0-.2.1-.3v-.1c0-.1 0-.2.1-.4s.2-.4.2-.6c0-.2-.1-.5 0-.6 0 0 0-.1.1-.1h.3c0 .1 0 .1.1.1h.1v-.2h.2c.3 0 .4-.1.3-.3-.1-.1-.2-.1-.2-.1s.1-.1.1-.2 0-.3-.1-.4c0-.1-.1-.1-.1-.1s.1-.1.1-.2-.2-.2-.3-.2h-.1v.30000000000000004h-.5v-.1c-.1-.1-.3-.1-.4-.1-.1 0-.2-.1-.2-.1v.1c.1.1.1.2.3.3h.1c-.1.1-.1.2-.1.4v.2c-.1.1-.2.2-.4.2 0 0-.1 0-.1.1l-.3.1h-.2c-.6 0-.9-.2-1.1-.1-.1 0-.2.1-.3.2 0 0 0-.1-.1-.1-.1-.1-.2-.1-.2-.2h.1-.2c0 .1-.1.1 0 0 0 0-.1 0-.1.2l.1.1zm.5 1.3z"/><path id="y_5_" class="st5" d="M276.4 70c.1 0 .2-.1.2-.2v-.1h-.1.1s0 .1-.1.1c-.2.1-.2.1-.1.2l-.2-.2c-.1 0-.3.1-.6.1h-.30000000000000004s-.1 0-.1-.1c-.1 0-.2-.1-.2-.1v-.1c0-.1 0-.2-.1-.2h.1c.1 0 .1-.1.2-.2v-.2s-.1 0-.1.1c-.1 0-.2 0-.2.1v.1h-.3v-.2h-.1s-.1.1-.1.2 0 .1.1.1l-.1.1c-.1.1-.1.2-.1.3 0 .1.1.1.1.1s-.1 0-.1.1 0 .1.2.1h.1v-.1h.2v.4c0 .1.2.3.2.3l.2.2.1.1v.1c-.1 0 0 .1 0 .1v.1s.1 0 .1-.1v-.4s0-.1-.1-.1h.4v.30000000000000004c-.1 0-.1.1-.1.1h.30000000000000004v-.1s0-.1.1-.1v-.4c.1-.1.2-.1.2-.2.4.1.3-.1.2-.3z"/><path id="y_4_" class="st5" d="M71.8 95c0-.2-.1-.2-.1-.2 0-.1-.2 0-.2 0h.1c.1.1 0 .1-.1.2v.1c-.1-.1-.2-.1-.3-.1-.2-.1-.5.2-1.1.3h-.2c-.1 0-.2-.1-.4-.1-.1 0-.1 0-.1-.1-.2 0-.3-.1-.4-.2v-.2c0-.2-.1-.3-.2-.4h.1c.2-.1.2-.2.3-.3v-.1s-.1.1-.2.1-.3.1-.3.2v.1c-.2 0-.4 0-.6.1v-.2c0-.1 0-.1-.1-.1 0 0-.1 0-.1.1-.1 0-.2.2-.2.3 0 .2.1.2.1.2l-.1.2c-.1.2-.1.3 0 .5 0 .1.1.2.1.2s-.2 0-.2.2.1.2.4.2h.2v.2h.1v-.1l.3-.1.1.1c0 .1.1.4.1.6 0 .2.2.4.4.6.1.2.2.3.2.4v.1s.1.1.1.3v.1c-.2 0-.1.2-.1.2v.2h.3l.1-.1.1-.1c.1-.1 0-.1 0-.2v-.5l-.1-.4c.2 0 .4 0 .7-.1.2 0 .4-.1.5-.2.1.1.2.2.3.2.1.2.1.3.1.3v.1c-.2 0-.1.2-.1.2h.1v.1s.2 0 .3-.1l.1-.1.1-.1v-.30000000000000004s0-.1.1-.3v-.30000000000000004c0-.1 0-.1-.1-.2 0-.1-.1-.1-.1-.1-.1-.1-.1-.2-.1-.3v-.1c.4-.5.2-.9.1-1.1l-.1-.1s.1 0 .1-.1v.3zm-.3 1.8z"/></svg>